<svg xmlns="http://www.w3.org/2000/svg" width="128" height="128" viewBox="0 0 96 96" fill="none">
  <path d="M12 37L48 12L84 37V73" stroke="#5FAF4B" stroke-width="8" stroke-linecap="round" stroke-linejoin="round"/>
  <path d="M20 35H76V76H20V35Z" fill="#F7FBF8" stroke="#4D6770" stroke-width="3" stroke-linejoin="round"/>
  <rect x="28" y="38" width="18" height="28" rx="2.5" fill="#FFFFFF" stroke="#4D6770" stroke-width="3"/>
  <rect x="31" y="34" width="12" height="5" rx="2" fill="#4D6770"/>
  <path d="M33 46L35.8 49L41 43.8" stroke="#5FAF4B" stroke-width="3" stroke-linecap="round" stroke-linejoin="round"/>
  <path d="M33 53L35.8 56L41 50.8" stroke="#5FAF4B" stroke-width="3" stroke-linecap="round" stroke-linejoin="round"/>
  <path d="M53 36V66" stroke="#4D6770" stroke-width="3" stroke-linecap="round"/>
  <path d="M53 46H72" stroke="#4D6770" stroke-width="3" stroke-linecap="round"/>
  <path d="M53 58H72" stroke="#4D6770" stroke-width="3" stroke-linecap="round"/>
  <rect x="56" y="39" width="7" height="7" rx="1.5" fill="#6B7F86"/>
  <rect x="65" y="40" width="5" height="8" rx="1.5" fill="#60B3E5"/>
  <rect x="56" y="50" width="9" height="8" rx="1.5" fill="#4D6770"/>
  <path d="M60.5 52.5V55.5" stroke="#FFFFFF" stroke-width="2.4" stroke-linecap="round"/>
  <path d="M59 54H62" stroke="#FFFFFF" stroke-width="2.4" stroke-linecap="round"/>
  <path d="M66.5 52H71" stroke="#9EAEB4" stroke-width="2.4" stroke-linecap="round"/>
  <path d="M66.5 56H71" stroke="#9EAEB4" stroke-width="2.4" stroke-linecap="round"/>
  <path d="M70 82C61.5 79.1 57 73.1 57 66V58L70 53L83 58V66C83 73.1 78.5 79.1 70 82Z" fill="#5FAF4B" stroke="#3F7E3D" stroke-width="3" stroke-linejoin="round"/>
  <path d="M64.5 67.5L68.5 71.5L76 63.5" stroke="#FFFFFF" stroke-width="4" stroke-linecap="round" stroke-linejoin="round"/>
</svg>
